<?xml version="1.0" encoding="UTF-8"?>
<!DOCTYPE svg PUBLIC "-//W3C//DTD SVG 1.1//EN" "http://www.w3.org/Graphics/SVG/1.1/DTD/svg11.dtd">
<!-- Creator: CorelDRAW (OEM Version) -->
<svg xmlns="http://www.w3.org/2000/svg" xml:space="preserve" width="51.6733mm" height="46.5789mm" version="1.1" style="shape-rendering:geometricPrecision; text-rendering:geometricPrecision; image-rendering:optimizeQuality; fill-rule:evenodd; clip-rule:evenodd"
viewBox="0 0 4735.41 4268.56"
 xmlns:xlink="http://www.w3.org/1999/xlink"
 xmlns:xodm="http://www.corel.com/coreldraw/odm/2003">
 <defs>
  <style type="text/css">
   <![CDATA[
    .fil6 {fill:#006192}
    .fil4 {fill:#016196}
    .fil1 {fill:#016495}
    .fil5 {fill:#026496}
    .fil3 {fill:#056394}
    .fil2 {fill:#0A6594}
    .fil0 {fill:#ED243B}
   ]]>
  </style>
 </defs>
 <g id="Layer_x0020_1">
  <metadata id="CorelCorpID_0Corel-Layer"/>
  <g id="_2964124240352">
   <path class="fil0" d="M3565.72 71.87c-79.69,19.79 -173.5,69.16 -235.63,110.03 -73.84,48.52 -141.45,111.26 -205.76,146.46 -14.34,23.88 -3.56,8.09 -19.67,26.84 -8.98,10.47 -11.53,12.2 -21.08,21.21 -119.52,112.55 -163.07,166.79 -267.71,291.85 -156.83,187.32 -377.02,526.53 -504.83,749.28l-223.72 392.81c-0.94,-2.12 -4.16,5.64 -6.42,8.28l-1959.61 -900.25c-59.25,-17.74 -64.73,19.19 -121.29,43.11l0 659.09 1909.39 555.93 -58.39 106c-15.97,67.88 -64.43,173.12 -107.76,228.45 -8.19,79.37 -252.97,554.27 -289.27,716.07l564.79 0.7c30.53,-116.25 165.12,-549.95 218.78,-630.12 9.59,-62.26 38.07,-138.7 72.31,-186.16l38.57 -113.69 1990.87 573.08 -1860.17 -866.78c49.53,-240.42 609.19,-1183.56 828.78,-1390.8 60.88,-57.48 195.62,-225.17 277.95,-240.07 119.61,-90.91 268.5,-16.1 366.44,46.66 72.63,67.91 130.26,122.04 186.88,216.13 258.13,429.07 391.48,1032.02 485,1529.09 28.8,153.08 73.93,593.87 111.23,696.66l0 -217.51c-29.22,-80.95 -26.85,-335.05 -36.75,-444.1 -52.43,-578.62 -268.78,-2326.3 -1132.94,-2128.26z"/>
   <path class="fil1" d="M3124.33 328.37c64.31,-35.2 131.93,-97.94 205.76,-146.46 62.13,-40.87 155.94,-90.25 235.63,-110.03l-201.98 -71.87 -149.99 0c-67.25,31.07 -188.52,47.93 -282.02,90.25 -91.19,41.25 -160.67,82.61 -238.19,135.27 -197.44,134.14 -445.27,358.8 -592.3,541.5 -100.68,125.13 -449.97,546.38 -488.66,660.27l400.37 190.44 232.23 -359.66c152.6,-245.68 637.71,-831.99 879.13,-929.7z"/>
   <path class="fil1" d="M-0 2233.31l1743.24 277.67c43.33,-55.33 91.79,-160.57 107.76,-228.45l-1851 -471.8 0 422.58z"/>
   <path class="fil1" d="M2220.27 3538.09l-6.96 719.4 197.29 -4.44 -0.38 -851.82 -325.72 3 -190.32 660.11c-66.3,-88.1 -129.6,-520.42 -200,-661.21l-316.9 0.97 0.09 850.62 193.6 -2.25 -1.82 -708.5 206.42 712.35 232.32 1.67 212.38 -719.91z"/>
   <path class="fil1" d="M1293.9 3176.51c28.83,-39.93 210.65,-509.43 206.36,-540.05l-553.19 -86c-46.13,52.84 -286.18,545.22 -311.42,628.79l658.25 -2.74z"/>
   <path class="fil1" d="M2930.42 3533.14l102.66 366.9 -206.2 -1.36 103.55 -365.55zm-142.52 507.37l288.82 4.64c21.05,69.76 34.48,154.53 71.34,211.97l199.71 -3.06 -273.07 -857.04 -288.03 0.94 -274.43 859.69 206.81 -2.87 68.85 -214.27z"/>
   <path class="fil1" d="M3585.86 373.21c320.37,297.49 457.72,611.73 597.37,1058.8 68,217.65 121.88,422.9 174.13,653.78 47.61,210.55 79.24,524.23 133.88,704.88 4.57,-618.83 -123.11,-1549.92 -406.04,-2126.74 -36.93,-75.31 -114.61,-188.34 -132.91,-244.05 -97.94,-62.77 -246.83,-137.57 -366.44,-46.66z"/>
   <path class="fil1" d="M3660.82 3541.08c110.01,-7.65 193.67,18.05 187.84,140.57 -5.45,115.07 -74.34,129.88 -189.41,124.93l1.58 -265.5zm-2.74 408.5c125.04,-12.92 225.8,-1.26 310.85,-74.21 74.94,-64.28 114.73,-170.94 80.73,-295.53 -61.82,-226.68 -364.26,-174.82 -600.8,-179.88l0.06 857.32 209.16 0.22 0 -307.92z"/>
   <path class="fil1" d="M825.38 4268.56l191.2 0c102.41,-51.39 187.58,-50.19 215.97,-182 29.37,-136.32 -36.14,-213.27 -114.07,-269.57 -74.27,-53.67 -208.66,-86.81 -220.1,-179.13 -7.82,-63.18 29.09,-101.79 88.04,-107.8 63.77,-6.52 119.55,19.09 178.6,39.04l66.05 -131.62c-120.53,-29.94 -206.93,-71.81 -351.37,-36.84 -101.47,24.58 -183.14,99.32 -188.24,214.3 -13.49,302.56 430.11,264.02 326.45,468.33 -56.28,101.31 -261.41,14.65 -335.53,-10.91l0.6 155.25 142.39 40.94z"/>
   <polygon class="fil1" points="4201.48,4256.93 4700.19,4257.59 4693.79,4118.28 4409.66,4118.28 4409.44,3404.05 4201.63,3401.52 4201.19,4201.85 "/>
   <path class="fil1" d="M2237.54 2597.63l2085.35 330.51 -2013.03 -516.67c-34.25,47.46 -62.73,123.9 -72.31,186.16z"/>
   <path class="fil1" d="M3708.31 2481.61c32.71,-48.27 17.55,-1499.72 15.18,-1695.88 -0.75,-63.36 5.17,-60.43 -29.53,-89.8 -2.24,2.52 -4.69,3.68 -5.29,8.63l-8.73 19c-0.82,3.28 -1.98,7.18 -2.7,11l-2.49 1654.26c0.03,73.93 -12.64,67.53 33.56,92.8z"/>
   <path class="fil2" d="M3895.04 2575.13c27.35,-65.63 8.89,-1088.04 8.89,-1307.92 0,-121.56 30.56,-320.61 -44.66,-385.75l-1.32 1614.33c0.66,65.89 -9.23,60.82 37.09,79.34z"/>
   <path class="fil3" d="M3348.15 2294.1c20.77,-52.75 18.65,-1528.62 0,-1571.38 -56.53,36.42 -38.16,66.42 -37.5,157.55l0.06 1240.68c-0.26,77.35 -22.59,150.52 37.44,173.15z"/>
   <path class="fil3" d="M3521.54 2386.74c14.03,-16.19 9.83,-2.96 16.1,-39.52l-2.9 -1676.52c-10.36,-37.24 5.8,-5.54 -13.21,-26.03 -52.74,22.53 -28.45,345.88 -28.45,409.12l-1.14 1241.69c0.4,68.45 -11.35,62.17 29.58,91.26z"/>
   <path class="fil2" d="M3161.38 2200.95c28.96,-49.47 11.91,-1246.29 12.61,-1299.19 -70.55,42.94 -46.39,154.77 -46.39,298.78l-0.18 867.41c-0.82,70.2 -18.5,104.2 33.96,133z"/>
   <path class="fil4" d="M4068.47 2667.68c30.91,-32.14 19.47,-99.5 19.16,-159.88l-0.04 -560.29c0,-182.41 32.3,-549.98 -41.56,-690.45l-4.57 1345.33c4.64,68.4 -11.28,34.75 27.01,65.29z"/>
   <path class="fil5" d="M2974.63 2106.08c15.18,-18.91 16.76,-4 16.23,-91.19 -1.51,-238.5 8.72,-629.67 -3,-828.62 -70.3,70.11 -43.55,295.25 -43.55,454.48l1.67 426.49c8.32,32.23 3.81,22.33 28.65,38.85z"/>
   <path class="fil5" d="M4224.06 2694.53c0,77.48 -11.47,43.29 31.13,68.03 10.91,-14.27 5.89,2.46 13.74,-29.46l2.87 -78.34c-2.46,-189.34 29.05,-638.55 -45.81,-763.11l-1.92 802.88z"/>
   <path class="fil6" d="M2782.69 2014.88c29.81,-25.71 15.92,4.77 25.56,-40.36l-3.28 -401.85c-14.15,15.53 -33.87,35.8 -41.02,83.05 -6.06,40.08 -14.56,314.66 18.74,359.15z"/>
  </g>
 </g>
</svg>
